<svg width="160" height="104" viewBox="0 0 160 104" fill="none" xmlns="http://www.w3.org/2000/svg">
<g id="logo">
<g id="BLC">
<path d="M12.2663 22.8929H21.5474C25.1839 22.8929 27.6805 24.4772 27.6805 28.4651C27.6805 32.5078 24.7497 33.6003 21.3846 33.6003H12.2663V22.8929ZM3.745 40.2652H22.5244C29.5259 40.2652 36.2018 36.8781 36.2018 28.9568C36.2018 24.0948 33.8137 20.4346 29.0917 19.0688C32.4568 17.4299 34.3564 14.7531 34.3564 10.929C34.3564 3.6632 29.3631 1.25948 21.9816 1.25948H3.745V40.2652ZM12.2663 7.92433H20.2448C23.2842 7.92433 26.1065 8.68914 26.1065 12.404C26.1065 15.6818 23.8812 17.0475 20.8961 17.0475H12.2663V7.92433Z" fill="black"/>
<path d="M58.2432 40.2652H85.6524V33.054H66.7645V1.25948H58.2432V40.2652Z" fill="black"/>
<path d="M140.784 14.3706C139.753 5.35672 132.589 0.33078 124.067 0.33078C112.072 0.33078 105.017 9.3447 105.017 20.9262C105.017 32.18 112.072 41.1939 124.067 41.1939C133.565 41.1939 140.241 34.9661 141.11 25.242H132.86C132.209 30.3772 129.278 33.9828 124.067 33.9828C116.414 33.9828 113.538 27.4272 113.538 20.9262C113.538 14.0975 116.414 7.54192 124.067 7.54192C128.301 7.54192 131.991 10.4919 132.534 14.3706H140.784Z" fill="black"/>
</g>
<g id="belarusian logistics co.">
<path d="M10.2762 60.3143C12.9221 60.3143 13.9194 62.0966 13.9194 63.8994C13.9194 65.7432 12.9221 67.5255 10.2762 67.5255C7.65057 67.5255 6.65326 65.7432 6.65326 63.8994C6.65326 62.0966 7.65057 60.3143 10.2762 60.3143ZM3.96661 69.2873H6.77538V67.7918H6.81608C7.01962 68.4473 8.70895 69.697 10.9478 69.697C15.0592 69.697 16.8503 66.6855 16.8503 63.8994C16.8503 61.1543 15.0592 58.1428 10.9478 58.1428C9.25849 58.1428 7.65057 58.6754 6.81608 59.9865H6.77538V54.4143H3.96661V69.2873Z" fill="black"/>
<path d="M32.4344 64.5755V64.1657C32.4344 60.9904 30.6026 58.0199 25.8196 58.0199C21.9932 58.0199 19.3269 60.3348 19.3269 63.9609C19.3269 66.8494 21.1383 69.697 26.0028 69.697C30.1142 69.697 31.5796 67.3001 32.1902 66.0914H29.1372C28.5877 66.9928 27.7735 67.6484 25.9214 67.6484C23.133 67.6484 22.3188 65.7841 22.2578 64.5755H32.4344ZM22.2578 62.7727C22.7259 60.5602 24.5577 59.9456 25.8603 59.9456C27.2443 59.9456 29.1576 60.6011 29.5036 62.7727H22.2578Z" fill="black"/>
<path d="M35.4606 69.2873H38.2693V54.4143H35.4606V69.2873Z" fill="black"/>
<path d="M53.2252 61.6664C53.2252 60.2529 53.0624 58.0199 47.4245 58.0199C44.2291 58.0199 42.1327 58.9008 41.7256 61.7484H44.4733C44.5751 60.5397 45.5724 59.9456 47.4245 59.9456C49.0528 59.9456 50.4775 60.2529 50.4775 61.5025C50.4775 62.3425 50.0501 62.4859 46.0202 62.8751C44.2291 63.039 41.1761 63.3053 41.1761 66.2963C41.1761 68.4269 42.7636 69.697 45.5724 69.697C48.7271 69.697 50.0908 68.7342 50.6404 68.2015C50.7218 68.6112 50.9253 69.5946 52.7571 69.5946C53.7137 69.5946 54.2022 69.4512 54.7517 69.3487V67.3616C54.5279 67.4025 54.1004 67.423 53.8358 67.423C53.6527 67.423 53.2252 67.4025 53.2252 66.8084V61.6664ZM50.4165 64.9237C50.4165 67.3206 47.8723 67.8942 46.3662 67.8942C45.4096 67.8942 44.1069 67.6279 44.1069 66.1939C44.1069 65.272 44.6158 64.8008 46.7325 64.555C48.7271 64.3296 49.6023 64.2272 50.4165 63.8789V64.9237Z" fill="black"/>
<path d="M56.9927 69.2873H59.8014V64.0428C59.8014 61.523 61.8164 60.765 63.2412 60.765C63.7296 60.765 64.2588 60.7855 65.0323 61.0313V58.2452C64.6659 58.1838 64.3402 58.1428 63.9128 58.1428C61.7554 58.1428 60.5952 59.3105 59.8421 60.5397H59.8014V58.4296H56.9927V69.2873Z" fill="black"/>
<path d="M67.4317 65.6817C67.4317 68.8571 69.6909 69.697 72.0112 69.697C73.9244 69.697 75.3492 68.939 76.2651 67.7713H76.3058V69.2873H79.1145V58.4296H76.3058V64.3911C76.3058 66.706 74.2704 67.5255 73.0289 67.5255C70.6272 67.5255 70.2405 66.2758 70.2405 64.6164V58.4296H67.4317V65.6817Z" fill="black"/>
<path d="M81.853 65.8866C81.9548 69.2053 85.598 69.697 87.898 69.697C91.2359 69.697 93.8615 68.7546 93.8615 65.989C93.8615 63.4692 91.5412 63.1209 87.9997 62.6088C85.2927 62.2195 85.0282 62.0761 85.0282 61.1952C85.0282 60.6216 85.883 59.9456 87.4706 59.9456C88.4272 59.9456 90.2997 60.13 90.5236 61.7484H93.4544C93.2916 58.2657 89.282 58.0199 87.613 58.0199C85.8016 58.0199 82.2194 58.4296 82.2194 61.523C82.2194 64.0018 83.9698 64.3911 87.3077 64.8418C90.3404 65.2515 90.8085 65.5383 90.8085 66.3782C90.8085 67.4025 89.282 67.7713 87.8776 67.7713C86.86 67.7713 84.9874 67.5255 84.906 65.8866H81.853Z" fill="black"/>
<path d="M96.6995 69.2873H99.5083V58.4296H96.6995V69.2873ZM96.6995 56.7088H99.5083V54.4143H96.6995V56.7088Z" fill="black"/>
<path d="M114.464 61.6664C114.464 60.2529 114.301 58.0199 108.663 58.0199C105.468 58.0199 103.372 58.9008 102.965 61.7484H105.712C105.814 60.5397 106.811 59.9456 108.663 59.9456C110.292 59.9456 111.716 60.2529 111.716 61.5025C111.716 62.3425 111.289 62.4859 107.259 62.8751C105.468 63.039 102.415 63.3053 102.415 66.2963C102.415 68.4269 104.003 69.697 106.811 69.697C109.966 69.697 111.33 68.7342 111.879 68.2015C111.961 68.6112 112.164 69.5946 113.996 69.5946C114.953 69.5946 115.441 69.4512 115.991 69.3487V67.3616C115.767 67.4025 115.339 67.423 115.075 67.423C114.892 67.423 114.464 67.4025 114.464 66.8084V61.6664ZM111.655 64.9237C111.655 67.3206 109.111 67.8942 107.605 67.8942C106.648 67.8942 105.346 67.6279 105.346 66.1939C105.346 65.272 105.855 64.8008 107.971 64.555C109.966 64.3296 110.841 64.2272 111.655 63.8789V64.9237Z" fill="black"/>
<path d="M118.232 69.2873H121.04V63.4487C121.04 61.1338 122.933 60.3143 124.399 60.3143C126.719 60.3143 127.106 61.6459 127.106 62.8136V69.2873H129.914V61.9123C129.914 58.9827 127.655 58.1428 125.335 58.1428C123.422 58.1428 121.997 58.9008 121.081 60.0685H121.04V58.4296H118.232V69.2873Z" fill="black"/>
<path d="M4.04803 93.7569H6.85679V78.8839H4.04803V93.7569Z" fill="black"/>
<path d="M12.6944 88.3281C12.6944 86.4433 13.7121 84.661 16.4394 84.661C19.1668 84.661 20.1844 86.4433 20.1844 88.3281C20.1844 90.2128 19.1668 91.9951 16.4394 91.9951C13.7121 91.9951 12.6944 90.2128 12.6944 88.3281ZM9.7635 88.3281C9.7635 91.319 11.6157 94.1666 16.4394 94.1666C21.2632 94.1666 23.1153 91.319 23.1153 88.3281C23.1153 85.3371 21.2632 82.4895 16.4394 82.4895C11.6157 82.4895 9.7635 85.3371 9.7635 88.3281Z" fill="black"/>
<path d="M28.3192 88.1027C28.3192 86.1565 29.8865 84.7839 31.9829 84.7839C33.4279 84.7839 35.85 85.46 35.85 88.0617C35.85 90.0694 34.3642 91.4624 32.2271 91.4624C29.2759 91.4624 28.3192 89.7006 28.3192 88.1027ZM35.85 82.8582V84.4562H35.8093C35.158 83.3089 33.5501 82.6124 31.3723 82.6124C27.2202 82.6124 25.3884 85.3576 25.3884 88.1437C25.3884 92.1795 28.5431 93.634 31.3926 93.634C33.0412 93.634 34.4456 93.1833 35.7889 91.8926H35.85V93.2038C35.85 94.6173 35.3819 96.3382 32.166 96.3382C30.4564 96.3382 29.1334 96.1128 28.8484 94.7197H25.9176C26.1618 97.5264 28.9095 98.2639 32.2474 98.2639C37.0101 98.2639 38.6588 95.9694 38.6588 93.3881V82.8582H35.85Z" fill="black"/>
<path d="M42.1231 93.7569H44.9319V82.8992H42.1231V93.7569ZM42.1231 81.1784H44.9319V78.8839H42.1231V81.1784Z" fill="black"/>
<path d="M47.7572 90.3562C47.8589 93.6749 51.5022 94.1666 53.8021 94.1666C57.1401 94.1666 59.7657 93.2242 59.7657 90.4586C59.7657 87.9388 57.4454 87.5905 53.9039 87.0784C51.1969 86.6892 50.9323 86.5458 50.9323 85.6648C50.9323 85.0912 51.7871 84.4152 53.3747 84.4152C54.3313 84.4152 56.2038 84.5996 56.4277 86.218H59.3586C59.1958 82.7353 55.1862 82.4895 53.5172 82.4895C51.7057 82.4895 48.1235 82.8992 48.1235 85.9926C48.1235 88.4715 49.8739 88.8607 53.2119 89.3114C56.2445 89.7211 56.7127 90.0079 56.7127 90.8479C56.7127 91.8722 55.1862 92.2409 53.7818 92.2409C52.7641 92.2409 50.8916 91.9951 50.8102 90.3562H47.7572Z" fill="black"/>
<path d="M63.3975 90.7249C63.3975 92.7736 63.6621 94.0027 67.0814 94.0027C67.9363 94.0027 68.4858 93.9413 69.2389 93.8388V91.7902C68.5672 91.8107 67.9159 91.8312 67.2239 91.8312C66.2673 91.8312 66.2062 91.1551 66.2062 89.9055V84.9478H69.1371V82.8992H66.2062V79.5395H63.3975V82.8992H61.1586V84.9478H63.3975V90.7249Z" fill="black"/>
<path d="M71.9098 93.7569H74.7185V82.8992H71.9098V93.7569ZM71.9098 81.1784H74.7185V78.8839H71.9098V81.1784Z" fill="black"/>
<path d="M90.224 86.7096C89.6337 83.0426 85.9294 82.4895 84.3011 82.4895C80.1287 82.4895 77.6252 84.8249 77.6252 88.3281C77.6252 91.319 79.4774 94.1666 84.3011 94.1666C85.0542 94.1666 89.6337 94.1052 90.285 89.5982H87.3541C86.7639 91.1347 86.1737 91.9951 83.9958 91.9951C81.5738 91.9951 80.5561 90.2128 80.5561 88.3281C80.5561 86.4433 81.6959 84.661 84.3011 84.661C85.9091 84.661 87.0896 85.5829 87.2931 86.7096H90.224Z" fill="black"/>
<path d="M92.4948 90.3562C92.5966 93.6749 96.2398 94.1666 98.5398 94.1666C101.878 94.1666 104.503 93.2242 104.503 90.4586C104.503 87.9388 102.183 87.5905 98.6415 87.0784C95.9345 86.6892 95.6699 86.5458 95.6699 85.6648C95.6699 85.0912 96.5248 84.4152 98.1123 84.4152C99.0689 84.4152 100.941 84.5996 101.165 86.218H104.096C103.933 82.7353 99.9238 82.4895 98.2548 82.4895C96.4434 82.4895 92.8612 82.8992 92.8612 85.9926C92.8612 88.4715 94.6116 88.8607 97.9495 89.3114C100.982 89.7211 101.45 90.0079 101.45 90.8479C101.45 91.8722 99.9238 92.2409 98.5194 92.2409C97.5017 92.2409 95.6292 91.9951 95.5478 90.3562H92.4948Z" fill="black"/>
<path d="M127.564 86.7096C126.973 83.0426 123.269 82.4895 121.641 82.4895C117.468 82.4895 114.965 84.8249 114.965 88.3281C114.965 91.319 116.817 94.1666 121.641 94.1666C122.394 94.1666 126.973 94.1052 127.625 89.5982H124.694C124.104 91.1347 123.513 91.9951 121.336 91.9951C118.913 91.9951 117.896 90.2128 117.896 88.3281C117.896 86.4433 119.036 84.661 121.641 84.661C123.249 84.661 124.429 85.5829 124.633 86.7096H127.564Z" fill="black"/>
<path d="M132.847 88.3281C132.847 86.4433 133.864 84.661 136.592 84.661C139.319 84.661 140.337 86.4433 140.337 88.3281C140.337 90.2128 139.319 91.9951 136.592 91.9951C133.864 91.9951 132.847 90.2128 132.847 88.3281ZM129.916 88.3281C129.916 91.319 131.768 94.1666 136.592 94.1666C141.416 94.1666 143.268 91.319 143.268 88.3281C143.268 85.3371 141.416 82.4895 136.592 82.4895C131.768 82.4895 129.916 85.3371 129.916 88.3281Z" fill="black"/>
<path d="M146.945 93.7569H150.12V90.8479H146.945V93.7569Z" fill="black"/>
</g>
</g>
</svg>
